<svg width="21" height="14" viewBox="0 0 21 14" fill="none" xmlns="http://www.w3.org/2000/svg">
<path d="M0.950421 2.0247L19.7769 2.0247C20.3026 2.0247 20.7273 1.56405 20.7273 1.00699C20.7273 0.449933 20.3026 0 19.7769 0L0.950421 0C0.414545 0 0 0.449933 0 1.00699C0 1.56405 0.424656 2.0247 0.950421 2.0247ZM3.04337 7.56316L17.7243 7.56316C18.2501 7.56316 18.6748 7.10251 18.6748 6.54545C18.6748 5.97768 18.2602 5.52775 17.7243 5.52775L3.04337 5.52775C2.50749 5.52775 2.09295 5.98839 2.09295 6.54545C2.09295 7.0918 2.51761 7.56316 3.04337 7.56316ZM5.09588 13.0909L15.6718 13.0909C16.2077 13.0909 16.6223 12.6303 16.6223 12.0732C16.6223 11.5161 16.2077 11.0662 15.6718 11.0662L5.09588 11.0662C4.56 11.0662 4.14545 11.5161 4.14545 12.0732C4.14545 12.6303 4.56 13.0909 5.09588 13.0909Z" fill="black"/>
</svg>
