<svg width="18" height="17" viewBox="0 0 18 17" fill="none" xmlns="http://www.w3.org/2000/svg">
<path d="M6.39699 14.1586V0C6.60437 0.0323625 6.81176 0.12945 7.01914 0.2589L10.9594 2.6699V16.6667C10.784 16.6343 10.6085 16.5696 10.417 16.4725L6.39699 14.1586ZM0 15.3398V3.9644C0 3.34951 0.239288 2.89644 0.781677 2.589L4.59435 0.38835C4.81768 0.275081 5.02507 0.177994 5.20055 0.0970874V14.3851L1.8186 16.2298C1.5474 16.3754 1.30811 16.4563 1.06882 16.4563C0.414767 16.4563 0 16.068 0 15.3398ZM12.1559 16.6343V2.411L15.6016 0.485437C15.8728 0.323625 16.144 0.242718 16.3993 0.242718C17.0693 0.242718 17.5 0.614887 17.5 1.35922V12.6861C17.5 13.301 17.2607 13.754 16.7024 14.0777L12.459 16.521C12.3473 16.5696 12.2516 16.6181 12.1559 16.6343Z" fill="black"/>
</svg>
