<svg width="48" height="8" viewBox="0 0 48 8" fill="none" xmlns="http://www.w3.org/2000/svg">
<path d="M0.551892 6V0.416H2.95189C3.46923 0.416 3.86923 0.568 4.15189 0.872C4.43456 1.176 4.57589 1.584 4.57589 2.096C4.57589 2.608 4.43456 3.016 4.15189 3.32C3.86923 3.624 3.46923 3.776 2.95189 3.776H1.45589V6H0.551892ZM1.45589 2.984H2.89589C3.12523 2.984 3.30389 2.92533 3.43189 2.808C3.55989 2.68533 3.62389 2.512 3.62389 2.288V1.904C3.62389 1.68 3.55989 1.50933 3.43189 1.392C3.30389 1.26933 3.12523 1.208 2.89589 1.208H1.45589V2.984ZM5.42539 6V1.84H6.29739V2.64H6.33739C6.39606 2.42667 6.51872 2.24 6.70539 2.08C6.89206 1.92 7.15072 1.84 7.48139 1.84H7.71339V2.68H7.36939C7.02273 2.68 6.75606 2.736 6.56939 2.848C6.38806 2.96 6.29739 3.12533 6.29739 3.344V6H5.42539ZM10.0808 6.096C9.78216 6.096 9.5155 6.04533 9.28083 5.944C9.04616 5.84267 8.84616 5.69867 8.68083 5.512C8.5155 5.32 8.3875 5.09067 8.29683 4.824C8.2115 4.552 8.16883 4.25067 8.16883 3.92C8.16883 3.58933 8.2115 3.29067 8.29683 3.024C8.3875 2.752 8.5155 2.52267 8.68083 2.336C8.84616 2.144 9.04616 1.99733 9.28083 1.896C9.5155 1.79467 9.78216 1.744 10.0808 1.744C10.3848 1.744 10.6515 1.79733 10.8808 1.904C11.1155 2.01067 11.3102 2.16 11.4648 2.352C11.6195 2.53867 11.7342 2.75733 11.8088 3.008C11.8888 3.25867 11.9288 3.528 11.9288 3.816V4.144H9.07283V4.28C9.07283 4.6 9.16616 4.864 9.35283 5.072C9.54483 5.27467 9.81683 5.376 10.1688 5.376C10.4248 5.376 10.6408 5.32 10.8168 5.208C10.9928 5.096 11.1422 4.944 11.2648 4.752L11.7768 5.256C11.6222 5.512 11.3982 5.71733 11.1048 5.872C10.8115 6.02133 10.4702 6.096 10.0808 6.096ZM10.0808 2.424C9.9315 2.424 9.79283 2.45067 9.66483 2.504C9.54216 2.55733 9.4355 2.632 9.34483 2.728C9.2595 2.824 9.19283 2.93867 9.14483 3.072C9.09683 3.20533 9.07283 3.352 9.07283 3.512V3.568H11.0088V3.488C11.0088 3.168 10.9262 2.912 10.7608 2.72C10.5955 2.52267 10.3688 2.424 10.0808 2.424ZM14.2141 6.096C13.8195 6.096 13.4888 6.02667 13.2221 5.888C12.9555 5.74933 12.7235 5.55733 12.5261 5.312L13.0861 4.8C13.2408 4.98667 13.4115 5.13333 13.5981 5.24C13.7901 5.34133 14.0115 5.392 14.2621 5.392C14.5181 5.392 14.7075 5.344 14.8301 5.248C14.9581 5.14667 15.0221 5.008 15.0221 4.832C15.0221 4.69867 14.9768 4.58667 14.8861 4.496C14.8008 4.4 14.6488 4.33867 14.4301 4.312L14.0461 4.264C13.6195 4.21067 13.2835 4.088 13.0381 3.896C12.7981 3.69867 12.6781 3.408 12.6781 3.024C12.6781 2.82133 12.7155 2.64267 12.7901 2.488C12.8648 2.328 12.9688 2.19467 13.1021 2.088C13.2408 1.976 13.4035 1.89067 13.5901 1.832C13.7821 1.77333 13.9928 1.744 14.2221 1.744C14.5955 1.744 14.8995 1.80267 15.1341 1.92C15.3741 2.03733 15.5875 2.2 15.7741 2.408L15.2381 2.92C15.1315 2.792 14.9901 2.68267 14.8141 2.592C14.6435 2.496 14.4461 2.448 14.2221 2.448C13.9821 2.448 13.8035 2.496 13.6861 2.592C13.5741 2.688 13.5181 2.81333 13.5181 2.968C13.5181 3.128 13.5688 3.248 13.6701 3.328C13.7715 3.408 13.9341 3.46667 14.1581 3.504L14.5421 3.552C15.0008 3.62133 15.3341 3.75733 15.5421 3.96C15.7555 4.15733 15.8621 4.424 15.8621 4.76C15.8621 4.96267 15.8221 5.14667 15.7421 5.312C15.6675 5.472 15.5581 5.61067 15.4141 5.728C15.2701 5.84533 15.0968 5.936 14.8941 6C14.6915 6.064 14.4648 6.096 14.2141 6.096ZM18.4793 6.096C18.1806 6.096 17.9139 6.04533 17.6793 5.944C17.4446 5.84267 17.2446 5.69867 17.0793 5.512C16.9139 5.32 16.7859 5.09067 16.6953 4.824C16.6099 4.552 16.5673 4.25067 16.5673 3.92C16.5673 3.58933 16.6099 3.29067 16.6953 3.024C16.7859 2.752 16.9139 2.52267 17.0793 2.336C17.2446 2.144 17.4446 1.99733 17.6793 1.896C17.9139 1.79467 18.1806 1.744 18.4793 1.744C18.7833 1.744 19.0499 1.79733 19.2793 1.904C19.5139 2.01067 19.7086 2.16 19.8633 2.352C20.0179 2.53867 20.1326 2.75733 20.2073 3.008C20.2873 3.25867 20.3273 3.528 20.3273 3.816V4.144H17.4713V4.28C17.4713 4.6 17.5646 4.864 17.7513 5.072C17.9433 5.27467 18.2153 5.376 18.5673 5.376C18.8233 5.376 19.0393 5.32 19.2153 5.208C19.3913 5.096 19.5406 4.944 19.6633 4.752L20.1753 5.256C20.0206 5.512 19.7966 5.71733 19.5033 5.872C19.2099 6.02133 18.8686 6.096 18.4793 6.096ZM18.4793 2.424C18.3299 2.424 18.1913 2.45067 18.0633 2.504C17.9406 2.55733 17.8339 2.632 17.7433 2.728C17.6579 2.824 17.5913 2.93867 17.5433 3.072C17.4953 3.20533 17.4713 3.352 17.4713 3.512V3.568H19.4073V3.488C19.4073 3.168 19.3246 2.912 19.1593 2.72C18.9939 2.52267 18.7673 2.424 18.4793 2.424ZM21.2926 6V1.84H22.1646V2.528H22.2046C22.2952 2.304 22.4312 2.11733 22.6126 1.968C22.7992 1.81867 23.0526 1.744 23.3726 1.744C23.7992 1.744 24.1299 1.88533 24.3646 2.168C24.6046 2.44533 24.7246 2.84267 24.7246 3.36V6H23.8526V3.472C23.8526 2.82133 23.5912 2.496 23.0686 2.496C22.9566 2.496 22.8446 2.512 22.7326 2.544C22.6259 2.57067 22.5299 2.61333 22.4446 2.672C22.3592 2.73067 22.2899 2.80533 22.2366 2.896C22.1886 2.98667 22.1646 3.09333 22.1646 3.216V6H21.2926ZM27.0852 6C26.7812 6 26.5519 5.92267 26.3972 5.768C26.2425 5.608 26.1652 5.384 26.1652 5.096V2.552H25.5172V1.84H25.8692C26.0132 1.84 26.1119 1.808 26.1652 1.744C26.2239 1.68 26.2532 1.576 26.2532 1.432V0.704H27.0372V1.84H27.9092V2.552H27.0372V5.288H27.8452V6H27.0852ZM30.4558 6.096C30.1572 6.096 29.8905 6.04533 29.6558 5.944C29.4212 5.84267 29.2212 5.69867 29.0558 5.512C28.8905 5.32 28.7625 5.09067 28.6718 4.824C28.5865 4.552 28.5438 4.25067 28.5438 3.92C28.5438 3.58933 28.5865 3.29067 28.6718 3.024C28.7625 2.752 28.8905 2.52267 29.0558 2.336C29.2212 2.144 29.4212 1.99733 29.6558 1.896C29.8905 1.79467 30.1572 1.744 30.4558 1.744C30.7598 1.744 31.0265 1.79733 31.2558 1.904C31.4905 2.01067 31.6852 2.16 31.8398 2.352C31.9945 2.53867 32.1092 2.75733 32.1838 3.008C32.2638 3.25867 32.3038 3.528 32.3038 3.816V4.144H29.4478V4.28C29.4478 4.6 29.5412 4.864 29.7278 5.072C29.9198 5.27467 30.1918 5.376 30.5438 5.376C30.7998 5.376 31.0158 5.32 31.1918 5.208C31.3678 5.096 31.5172 4.944 31.6398 4.752L32.1518 5.256C31.9972 5.512 31.7732 5.71733 31.4798 5.872C31.1865 6.02133 30.8452 6.096 30.4558 6.096ZM30.4558 2.424C30.3065 2.424 30.1678 2.45067 30.0398 2.504C29.9172 2.55733 29.8105 2.632 29.7198 2.728C29.6345 2.824 29.5678 2.93867 29.5198 3.072C29.4718 3.20533 29.4478 3.352 29.4478 3.512V3.568H31.3838V3.488C31.3838 3.168 31.3012 2.912 31.1358 2.72C30.9705 2.52267 30.7438 2.424 30.4558 2.424ZM35.8851 5.312H35.8451C35.7545 5.55733 35.6051 5.74933 35.3971 5.888C35.1945 6.02667 34.9545 6.096 34.6771 6.096C34.1491 6.096 33.7411 5.90667 33.4531 5.528C33.1651 5.144 33.0211 4.608 33.0211 3.92C33.0211 3.232 33.1651 2.69867 33.4531 2.32C33.7411 1.936 34.1491 1.744 34.6771 1.744C34.9545 1.744 35.1945 1.81333 35.3971 1.952C35.6051 2.08533 35.7545 2.27733 35.8451 2.528H35.8851V0.0799999H36.7571V6H35.8851V5.312ZM34.9411 5.344C35.2078 5.344 35.4318 5.28 35.6131 5.152C35.7945 5.01867 35.8851 4.84533 35.8851 4.632V3.208C35.8851 2.99467 35.7945 2.824 35.6131 2.696C35.4318 2.56267 35.2078 2.496 34.9411 2.496C34.6371 2.496 34.3945 2.59467 34.2131 2.792C34.0318 2.984 33.9411 3.24 33.9411 3.56V4.28C33.9411 4.6 34.0318 4.85867 34.2131 5.056C34.3945 5.248 34.6371 5.344 34.9411 5.344ZM39.8941 0.0799999H40.7661V2.528H40.8061C40.8968 2.27733 41.0435 2.08533 41.2461 1.952C41.4541 1.81333 41.6968 1.744 41.9741 1.744C42.5021 1.744 42.9101 1.936 43.1981 2.32C43.4861 2.69867 43.6301 3.232 43.6301 3.92C43.6301 4.608 43.4861 5.144 43.1981 5.528C42.9101 5.90667 42.5021 6.096 41.9741 6.096C41.6968 6.096 41.4541 6.02667 41.2461 5.888C41.0435 5.74933 40.8968 5.55733 40.8061 5.312H40.7661V6H39.8941V0.0799999ZM41.7101 5.344C42.0141 5.344 42.2568 5.248 42.4381 5.056C42.6195 4.85867 42.7101 4.6 42.7101 4.28V3.56C42.7101 3.24 42.6195 2.984 42.4381 2.792C42.2568 2.59467 42.0141 2.496 41.7101 2.496C41.4435 2.496 41.2195 2.56267 41.0381 2.696C40.8568 2.824 40.7661 2.99467 40.7661 3.208V4.632C40.7661 4.84533 40.8568 5.01867 41.0381 5.152C41.2195 5.28 41.4435 5.344 41.7101 5.344ZM47.1258 1.84H47.9658L46.2138 6.824C46.1658 6.96267 46.1098 7.08 46.0458 7.176C45.9872 7.27733 45.9152 7.35733 45.8298 7.416C45.7498 7.48 45.6512 7.52533 45.5338 7.552C45.4165 7.584 45.2778 7.6 45.1178 7.6H44.6138V6.888H45.3178L45.5578 6.184L44.0458 1.84H44.9178L45.7498 4.288L45.9898 5.192H46.0298L46.2938 4.288L47.1258 1.84Z" fill="black"/>
</svg>
