<svg width="44" height="14" viewBox="0 0 44 14" fill="none" xmlns="http://www.w3.org/2000/svg">
<path d="M5.33596 6.99018L8.12335 3.08784H6.10248L4.43005 5.59649L2.75763 3.08784H0.736776L3.45447 6.99018L0.52771 11.1713H2.54858L4.43005 8.38387L8.40208 14.0283H10.3532L5.33596 6.99018ZM43.5231 3.08784H41.6416L38.7846 8.24451L36.8334 3.08784H35.0216L37.7393 10.126L35.6488 14.0283H37.5302L43.5231 3.08784ZM9.79577 3.08784H8.95955L7.98397 4.48153H9.79577V11.1713H11.5379V4.48153H13.3497V3.08784H11.5379V2.32132C11.5379 1.69416 11.8166 1.48509 12.3741 1.48509C12.7225 1.48509 13.071 1.55479 13.3497 1.62447V0.230781C13.0013 0.0914106 12.5135 0.0217247 11.956 0.0217247C10.632 0.0217247 9.79577 0.92762 9.79577 2.391V3.08784ZM31.0496 4.48153V9.01103C31.0496 10.4744 31.8858 11.3803 33.2098 11.3803C33.6279 11.3803 34.1157 11.3106 34.4641 11.2409L34.6732 9.84725C34.6035 9.84725 34.1854 9.98662 33.9066 9.98662C33.1401 9.98662 32.8614 9.70788 32.8614 8.94135V4.55122H34.8822L34.3247 3.15753H32.7917V0.230781L31.0496 1.13667V3.15753H29.7952V4.55122L31.0496 4.48153ZM21.9906 2.94847C21.1544 2.94847 20.3878 3.2969 19.9697 3.85438V3.15753H18.2276V11.2409H19.9697V6.50239C19.9697 5.17839 20.5272 4.48153 21.5725 4.48153C22.6874 4.48153 23.1752 5.1087 23.1752 6.64176V11.2409H24.9173V6.57207C24.9173 4.2028 23.8721 2.94847 21.9906 2.94847ZM16.2764 10.7531V3.08784H14.5343V11.1713H16.2764V10.7531ZM28.4712 10.7531V3.08784H26.7291V11.1713H28.4712V10.7531Z" fill="black"/>
</svg>
